@startuml

class Register {
    +reg: str
    +is_valid() -> bool
}


class Line {
    +index: int
    +label: str
    +command: str
    +operand: str
    -continuation: bool
    +is_fall_down: property -> bool
    +is_set_cc: property -> bool
    +is_first_pass: property -> bool
    +is_assembler_directive: property -> bool
    +is_fall_down: property -> bool
    +stop_checking_for_conditions: property -> bool
    +length: property -> int
    +is_sw00sr: property -> bool
    +from_line(file_line: str, continuing: bool) -> Line
    +from_file(file_lines: List[file_line: str]) -> List[Line]
    +yield_lines(List[Line]) -> List[Line]
    +remove_suffix() -> Line
    +split_operands() -> List[str] 
}

class LabelReference {
    +label: str
    +dsp: int
    +length: int
    +name: str
    -branch: int ~ 0, 1, 2
    +is_branch: property -> bool
    +is_instruction_branch: property -> bool
    +is_literal: property -> bool
    +set_branch()
    +set_is_instruction_branch()
}

class Dsdc {
    +duplication_factor: int
    +length: int
    +data_type: str
    +data: bytearray
    +start: int
}

abstract class MacroGeneric {
    +name: str
    -symbol_table: Dict[label, LabelReference]
    -directives: Dict[command, callable]
    -location_counter: int
    -max_location_counter: int
    +lookup(label: str) -> LabelReference
    +evaluate(expression: str) -> int
    +get_value(expression: str) -> int
    -dsdc(operand: str) -> Dsdc
}
note left
# lookup() is for a single label
# evaluate() is for
## digits
## dsp of label
## length of label(L'XY)
# get_value() is for
## all that evaluate() returns
## arithmetic(+-*)
## DataTypes(X'AB')
end note

MacroGeneric::symbol_table *-- LabelReference
MacroGeneric::dsdc *.. Dsdc

abstract class DataMacroImplementation {
    +ds(line: Line)
    +equ(line: Line)
    +org(line: Line)
    +dsect(line: Line)
}
DataMacroImplementation --|>  MacroGeneric
DataMacroImplementation::Line *... Line

class DataMacro {
    +file_name:str
    +default_macros: Dict[label, LabelReference]
    -second_pass(command: str, second_list: list)
    +load()
}
DataMacro ---|>  DataMacroImplementation

class Data {
    +constant: bytearray
    +literal: bytearray
    +next_constant: property -> int
    +next_literal: property -> int
    +get_constant(start: int, end: int) -> bytearray
    +get_literal(start: int, end: int) -> bytearray
}


abstract class SegmentGeneric {
    +dsect: Tuple[location_counter: int, dsect: str]
    -using: Dict[dsect, Register]
    +using_stack: List[using]
    +data_macro: Set[macro_name]
    +data: Data
    +load_macro(macro_name: str, base: Register, suffix: str)
    +set_using(dsect: str, base: Register)
    +get_macro_name(base: Register)
    +get_base(macro_name: str)
    +get_field_name(base: Register, dsp: int, length: int)
    +is_branch(label: str) -> bool
    +is_instruction_branch(label: str) -> bool
}

SegmentGeneric --|> DataMacroImplementation
SegmentGeneric::Register *... Register
SegmentGeneric::Data *- Data

abstract class DirectiveImplementation {
    +ds(line: Line)
    +equ(line: Line)
    +org(line: Line)
    +dsect(line: Line)
    +dc(line: Line)
    +csect(line: Line)
    +pgmid(line: Line)
    +push(line: Line)
    +pop(line: Line)
    +using(line: Line)
    +no_operation(line: Line)
}

DirectiveImplementation --|> SegmentGeneric
DirectiveImplementation::Line *... Line

abstract class InstructionOperand {
    -get_field_by_name(field_name: str) -> FieldBaseDsp
    -get_field_by_base_dsp(base: str, dsp: int, length) -> FieldBaseDsp
    +field_base_dsp(operand: str, length: int = 1) -> FieldBaseDsp
    +field_index(operand: str, length: int) -> FieldIndex
    +field_len(operand: str, max_len: int) -> FieldLen
    +bits(operand: str) -> Bits
}

InstructionOperand ---|> SegmentGeneric
InstructionOperand::FieldBaseDsp *... FieldBaseDsp
InstructionOperand::FieldIndex *... FieldIndex
InstructionOperand::FieldLen *... FieldLen
InstructionOperand::Bits *... Bits

class FieldBaseDsp {
    +name: str
    +base: Register
    +dsp: int
}

FieldBaseDsp::Register *-- Register

class FieldIndex {
    +index: Register
}

FieldIndex --|> FieldBaseDsp
FieldIndex::Register *-- Register


class FieldLen {
    +length: int
}

FieldLen --|> FieldBaseDsp

class Bit {
    +name: str
    +value: int
    +on: bool
}

class Bits {
    +bit0: Bit
    +bit1: Bit
    +bit2: Bit
    +bit3: Bit
    +bit4: Bit
    +bit5: Bit
    +bit6: Bit
    +bit7: Bit
    +value: property -> int
}

Bits::Bit *- Bit


abstract class InstructionImplementation {
    +field_bits(line: Line) -> FieldBits
    +field_len_field(line: Line) -> FieldLenField
    +field_len_field_len(line: Line) -> FieldLenFieldLen
    +field_len_field_data(line: Line) -> FieldLenFieldData
    +field_data(line: Line) -> FieldData
    +field_single(line: Line) -> FieldSingle
    +reg_reg(line: Line) -> RegisterRegister
    +reg_field_index(line: Line) -> RegisterFieldIndex
    +reg_data(line: Line) -> RegisterData
    +reg_reg_field(line: Line) -> RegisterRegisterField
    +reg_data_field(line: Line) -> RegisterDataField
    +branch_condition(line: Line) -> BranchCondition
    +branch_condition_reg(line: Line) -> BranchConditionRegister
    +reg_branch(line: Line) -> RegisterBranch
    +reg_reg_branch(line: Line) -> RegisterRegisterBranch
    -get_branch(operand: str) -> FieldIndex
}

InstructionImplementation::FieldBits *... FieldBits
InstructionImplementation::FieldLenField *... FieldLenField
InstructionImplementation::FieldLenFieldData *... FieldLenFieldData
InstructionImplementation::FieldLenFieldLen *... FieldLenFieldLen
InstructionImplementation::FieldData *... FieldData
InstructionImplementation::FieldSingle *... FieldSingle
InstructionImplementation::RegisterRegister *... RegisterRegister
InstructionImplementation::RegisterFieldIndex *... RegisterFieldIndex
InstructionImplementation::RegisterData *... RegisterData
InstructionImplementation::RegisterRegisterField *... RegisterRegisterField
InstructionImplementation::RegisterDataField *... RegisterDataField
InstructionImplementation::BranchCondition *... BranchCondition
InstructionImplementation::BranchConditionRegister *... BranchConditionRegister
InstructionImplementation::RegisterBranch *... RegisterBranch
InstructionImplementation::RegisterRegisterBranch *... RegisterRegisterBranch
InstructionImplementation::Line *... Line
InstructionImplementation ---|> InstructionOperand

class InstructionGeneric {
    +index: int
    +label: str
    +command: str
    +fall_down: Optional[str]
    +conditions: List[InstructionGeneric]
    +next_labels: property -> Set[label]
    +goes: property -> label: str
    +on: property -> condition: str
    +is_fall_down: property -> bool
    +is_check_cc: property -> bool
    +get_attribute(cmd_attribute) -> attribute_value: str
}

class FieldBits {
    +field: FieldBaseDsp
    +bits: Bits
}

FieldBits::field *-- FieldBaseDsp
FieldBits::Bits *-- Bits
FieldBits --|> InstructionGeneric

class FieldLenField {
    +field_len: FieldLen
    +field: FieldBaseDsp
}

FieldLenField::FieldBaseDsp *-- FieldBaseDsp
FieldLenField::FieldLen *-- FieldLen
FieldLenField --|> InstructionGeneric

class FieldLenFieldLen {
    +field_len1: FieldLen
    +field_len2: FieldLen
}

FieldLenFieldLen::FieldLen *-- FieldLen
FieldLenFieldLen --|> InstructionGeneric

class FieldLenFieldData {
    +field_len: FieldLen
    +field: FieldBaseDsp
    +data: int
}

FieldLenFieldData::FieldBaseDsp *-- FieldBaseDsp
FieldLenFieldData::FieldLen *-- FieldLen
FieldLenFieldData --|> InstructionGeneric

class FieldData {
    +field: FieldBaseDsp
    +data: int
}

FieldData::FieldBaseDsp *-- FieldBaseDsp
FieldData --|> InstructionGeneric

class FieldSingle {
    +field: FieldBaseDsp
}

FieldSingle::FieldBaseDsp *-- FieldBaseDsp
FieldSingle --|> InstructionGeneric

class RegisterRegister {
    +reg1: Register
    +reg2: Register
}

RegisterRegister::Register *-- Register
RegisterRegister --|> InstructionGeneric

class RegisterFieldIndex {
    +reg: Register
    +field: FieldIndex
}

RegisterFieldIndex::Register *-- Register
RegisterFieldIndex::FieldIndex *-- FieldIndex
RegisterFieldIndex --|> InstructionGeneric

class RegisterData {
    +reg: Register
    +data: int
}

RegisterData::Register *-- Register
RegisterData --|> InstructionGeneric

class RegisterRegisterField {
    +reg1: Register
    +reg2: Register
    +field: FieldBaseDsp
}

RegisterRegisterField::Register *-- Register
RegisterRegisterField::FieldBaseDsp *-- FieldBaseDsp
RegisterRegisterField --|> InstructionGeneric

class RegisterDataField {
    +reg: Register
    +data: int
    +field: FieldBaseDsp
}

RegisterDataField::Register *-- Register
RegisterDataField::FieldBaseDsp *-- FieldBaseDsp
RegisterDataField --|> InstructionGeneric

abstract class BranchGeneric {
    branch: FieldIndex
    +next_labels: property -> Set[label]
    +goes: property -> label: str
    +on: property -> condition: str
}

BranchGeneric::FieldIndex *-- FieldIndex
BranchGeneric -|> InstructionGeneric

class BranchCondition {
    mask: int
}

BranchCondition -|> BranchGeneric

class BranchConditionRegister {
    reg: Register
}

BranchConditionRegister::Register *--- Register
BranchConditionRegister -|> BranchCondition

class RegisterBranch {
    reg:Register
}

RegisterBranch::Register *--- Register
RegisterBranch -|> BranchGeneric

class RegisterRegisterBranch {
    reg1:Register
    reg2:Register
}

RegisterRegisterBranch::Register *--- Register
RegisterRegisterBranch -|> BranchGeneric


abstract class ExecutableMacroImplementation {
    +seg_call(line: Line) -> SegmentCall
    +key_value(line: Line) -> KeyValue
    +dbred(line: Line) -> KeyValue
    +globz(line: Line) -> RegisterData
    +data_macro(line: Line)
}

ExecutableMacroImplementation --|> InstructionImplementation
ExecutableMacroImplementation::SegmentCall *... SegmentCall
ExecutableMacroImplementation::KeyValue *... KeyValue
ExecutableMacroImplementation::Line *... Line


class SegmentCall {
    seg_name: str
}

SegmentCall -|> BranchGeneric

class KeyValue {
    -operands: List[Tuple[str, Union[Optional[str], List[Tuple[str, Optional[str]]]]]]
    +branches: List[str]
    +keys: property -> List[str]
    +sub_key_value: property -> List[Tuple[str, List]]
    +next_labels: property -> Set[label]
    +goes: property -> label: str
    +get_value(key: str) -> value: Union[Optional[str], List]
    +is_key(key: str) -> bool
    +get_sub_value(key: str, sub_key: str) -> sub_value: str
}

KeyValue -|> InstructionGeneric

class LabelSave {
    -labels: List[str]
    +dumps(label: str) -> saved_value:int
    +loads(saved_value: int) -> label:str
}

class Segment {
    +file_name: str
    +nodes: Dict[label, InstructionGeneric]
    +bas: LabelSave
    +root_label: property -> str
    +root_line: property -> Line
    +assemble()
    -build_symbol_table()
    -assemble_instructions()
    -update_index()
    -process_assembler_directives()
    +get_constant_bytes(label: str, length: int) -> bytearray
}

Segment -|> ExecutableMacroImplementation
Segment -|> DirectiveImplementation
Segment::LabelSave *-- LabelSave

class Assembly <<Singleton>> {
    +macros: Dict[name, DataMacro]
    +segments: Dict[name, Segment]
}

Assembly::DataMacro *-- DataMacro
Assembly::Segment *- Segment
@enduml